<svg width="15" height="28" viewBox="0 0 15 28" fill="none" xmlns="http://www.w3.org/2000/svg">
<path d="M13.3717 9.72398C13.3838 9.60607 13.2913 9.50357 13.1728 9.50357H9.34887V6.85034C9.34887 5.85392 10.0093 5.62161 10.4744 5.62161C10.8568 5.62161 12.5469 5.62161 13.1304 5.62161C13.2408 5.62161 13.3293 5.53207 13.3293 5.42161V1.4404C13.3293 1.33024 13.2402 1.24083 13.13 1.2404L9.39755 1.22583C5.03299 1.22583 4.03975 4.4929 4.03975 6.58364V9.50357H1.71562C1.60517 9.50357 1.51562 9.59312 1.51562 9.70357V13.8174C1.51562 13.9278 1.60517 14.0174 1.71563 14.0174H4.03975C4.03975 19.2364 4.03975 25.4189 4.03975 26.5924C4.03975 26.7028 4.12929 26.7898 4.23975 26.7898H9.14887C9.25933 26.7898 9.34887 26.7027 9.34887 26.5922C9.34887 25.4125 9.34887 19.1769 9.34887 14.0174H12.7508C12.8533 14.0174 12.9393 13.9398 12.9497 13.8378L13.3717 9.72398Z" stroke="#17C1BC" stroke-width="2"/>
</svg>
